<mxfile host="app.diagrams.net" modified="2023-04-18T22:40:59.964Z" agent="Mozilla/5.0 (Macintosh; Intel Mac OS X 10_15_7) AppleWebKit/537.36 (KHTML, like Gecko) Chrome/112.0.0.0 Safari/537.36" etag="X6IEOyq-LMlLkWBuyFvu" version="21.1.5" type="device">
  <diagram name="Page-1" id="CrpBqNbUkEqZLmGfe735">
    <mxGraphModel dx="3005" dy="1158" grid="1" gridSize="10" guides="1" tooltips="1" connect="1" arrows="1" fold="1" page="1" pageScale="1" pageWidth="850" pageHeight="1100" math="0" shadow="0">
      <root>
        <mxCell id="0" />
        <mxCell id="1" parent="0" />
        <mxCell id="aVRKm03BNQru8yW79I8_-6" style="edgeStyle=orthogonalEdgeStyle;rounded=0;orthogonalLoop=1;jettySize=auto;html=1;" edge="1" parent="1" source="aVRKm03BNQru8yW79I8_-1" target="aVRKm03BNQru8yW79I8_-5">
          <mxGeometry relative="1" as="geometry" />
        </mxCell>
        <mxCell id="aVRKm03BNQru8yW79I8_-1" value="step1" style="rounded=0;whiteSpace=wrap;html=1;" vertex="1" parent="1">
          <mxGeometry x="230" y="290" width="120" height="60" as="geometry" />
        </mxCell>
        <mxCell id="aVRKm03BNQru8yW79I8_-8" style="edgeStyle=orthogonalEdgeStyle;rounded=0;orthogonalLoop=1;jettySize=auto;html=1;" edge="1" parent="1" source="aVRKm03BNQru8yW79I8_-5" target="aVRKm03BNQru8yW79I8_-7">
          <mxGeometry relative="1" as="geometry" />
        </mxCell>
        <mxCell id="aVRKm03BNQru8yW79I8_-10" style="edgeStyle=orthogonalEdgeStyle;rounded=0;orthogonalLoop=1;jettySize=auto;html=1;entryX=0.5;entryY=1;entryDx=0;entryDy=0;" edge="1" parent="1" source="aVRKm03BNQru8yW79I8_-5" target="aVRKm03BNQru8yW79I8_-9">
          <mxGeometry relative="1" as="geometry" />
        </mxCell>
        <mxCell id="aVRKm03BNQru8yW79I8_-5" value="" style="rhombus;whiteSpace=wrap;html=1;" vertex="1" parent="1">
          <mxGeometry x="440" y="280" width="80" height="80" as="geometry" />
        </mxCell>
        <mxCell id="aVRKm03BNQru8yW79I8_-7" value="step1" style="rounded=0;whiteSpace=wrap;html=1;" vertex="1" parent="1">
          <mxGeometry x="420" y="420" width="120" height="60" as="geometry" />
        </mxCell>
        <mxCell id="aVRKm03BNQru8yW79I8_-9" value="step1" style="rounded=0;whiteSpace=wrap;html=1;" vertex="1" parent="1">
          <mxGeometry x="420" y="180" width="120" height="60" as="geometry" />
        </mxCell>
        <mxCell id="aVRKm03BNQru8yW79I8_-12" value="" style="rounded=0;whiteSpace=wrap;html=1;" vertex="1" parent="1">
          <mxGeometry x="330" y="560" width="420" height="470" as="geometry" />
        </mxCell>
        <mxCell id="aVRKm03BNQru8yW79I8_-14" value="&lt;h1&gt;Heading&lt;/h1&gt;&lt;p&gt;Lorem ipsum dolor sit amet, consectetur adipisicing elit, sed do eiusmod tempor incididunt ut labore et dolore magna aliqua.&lt;/p&gt;" style="text;html=1;strokeColor=none;fillColor=none;spacing=5;spacingTop=-20;whiteSpace=wrap;overflow=hidden;rounded=0;" vertex="1" parent="1">
          <mxGeometry x="360" y="580" width="380" height="120" as="geometry" />
        </mxCell>
        <mxCell id="aVRKm03BNQru8yW79I8_-15" value="Next" style="rounded=1;whiteSpace=wrap;html=1;" vertex="1" parent="1">
          <mxGeometry x="570" y="960" width="120" height="60" as="geometry" />
        </mxCell>
      </root>
    </mxGraphModel>
  </diagram>
</mxfile>
